<svg version="1.1" id="Layer_1" xmlns="http://www.w3.org/2000/svg" xmlns:xlink="http://www.w3.org/1999/xlink" x="0px" y="0px"
	 width="100%" viewBox="0 0 480 480" enable-background="new 0 0 480 480" xml:space="preserve">
<path fill="#000000" opacity="1.000000" stroke="none" 
	d="
M107.718460,167.899506 
	C125.875343,126.463524 156.511429,100.428902 200.344330,90.313477 
	C207.787247,88.595863 215.368866,87.579735 223.085617,87.614212 
	C246.577835,87.719200 270.070984,87.600998 293.563507,87.663490 
	C351.402527,87.817360 404.208588,130.696777 416.251404,187.223251 
	C418.335358,197.005005 419.509247,206.843491 419.413391,216.895142 
	C419.203644,238.886307 419.354523,260.880859 419.346375,282.874023 
	C419.324341,342.329224 372.817993,396.836090 314.151459,406.426849 
	C305.892303,407.777039 297.664154,408.421936 289.323883,408.395050 
	C267.164307,408.323517 245.003738,408.466461 222.844742,408.331787 
	C166.444077,407.989105 112.993057,363.932770 101.696167,308.693420 
	C99.621582,298.549164 98.498306,288.375763 98.601028,278.000031 
	C98.793999,258.507996 98.949379,239.007156 98.575638,219.520416 
	C98.235382,201.779510 101.215218,184.758453 107.718460,167.899506 
M274.502869,212.326889 
	C274.350098,214.313293 274.068604,216.299408 274.064270,218.286133 
	C274.014740,240.949677 273.987946,263.613342 273.996277,286.276947 
	C274.001251,299.785889 274.037354,299.557434 287.434479,299.753448 
	C292.522614,299.827881 293.787476,297.744720 293.682495,293.247620 
	C293.507568,285.752777 293.902985,278.238098 293.545624,270.756287 
	C293.316925,265.968018 295.237488,264.587433 299.650085,264.860962 
	C303.800140,265.118225 307.978882,264.909790 312.144989,264.912628 
	C323.162109,264.920074 323.062622,264.924835 322.685791,253.969070 
	C322.571533,250.646667 321.615021,249.178513 318.029816,249.301071 
	C311.372131,249.528656 304.698700,249.254257 298.035675,249.385559 
	C294.837769,249.448578 293.512024,248.246567 293.606812,245.009552 
	C293.748199,240.181351 293.754242,235.340652 293.573975,230.514404 
	C293.443542,227.022461 294.939148,225.773880 298.311981,225.835526 
	C305.308746,225.963409 312.309479,225.905914 319.308228,225.865799 
	C320.935944,225.856461 323.115784,226.322662 323.912018,224.670532 
	C325.713959,220.931641 325.162140,216.775192 324.440826,212.927353 
	C323.835938,209.700424 320.502472,210.416626 318.140778,210.402328 
	C305.309723,210.324707 292.477875,210.375412 279.646301,210.390762 
	C277.982971,210.392746 276.283020,210.303543 274.502869,212.326889 
M209.302460,225.913681 
	C215.904404,226.087234 216.080048,226.206650 216.090866,232.683792 
	C216.121201,250.836884 216.089905,268.990051 216.105011,287.143188 
	C216.115448,299.689514 216.131836,299.689484 228.874283,299.643250 
	C235.268967,299.620056 235.622406,299.340057 235.637360,292.840240 
	C235.676788,275.686371 235.578735,258.531921 235.685318,241.378662 
	C235.715103,236.589020 233.662811,230.583099 236.619858,227.312607 
	C239.886475,223.699738 246.104401,226.108337 251.013687,225.993027 
	C261.360840,225.750015 261.212158,225.916718 261.005310,215.446396 
	C260.926361,211.448410 259.294647,210.254395 255.557327,210.330399 
	C247.566589,210.492889 239.570236,210.378418 231.576172,210.378479 
	C220.084686,210.378555 208.593109,210.353088 197.101822,210.401062 
	C194.606491,210.411484 191.794907,210.337784 191.222534,213.667145 
	C190.773361,216.279968 190.559723,218.958725 190.530960,221.611328 
	C190.501205,224.354599 191.915359,225.924423 194.860260,225.898056 
	C199.356216,225.857773 203.852982,225.905136 209.302460,225.913681 
z"/>
</svg>